<svg xmlns="http://www.w3.org/2000/svg" width="1600" height="900" viewBox="0 0 1600 900">
  <defs>
    <linearGradient id="bg" x1="0" y1="0" x2="1" y2="1">
      <stop offset="0" stop-color="#07111f"/>
      <stop offset="0.56" stop-color="#101a32"/>
      <stop offset="1" stop-color="#0a0e1b"/>
    </linearGradient>
    <linearGradient id="title" x1="0" y1="0" x2="1" y2="0">
      <stop offset="0" stop-color="#ffffff"/>
      <stop offset="1" stop-color="#a9c8ff"/>
    </linearGradient>
    <filter id="glow"><feGaussianBlur stdDeviation="12"/></filter>
  </defs>
  <rect width="1600" height="900" fill="url(#bg)"/>
  <g opacity=".2" stroke="#8aa8de" stroke-width="1">
    <path d="M0 94H1600M0 194H1600M0 294H1600M0 394H1600M0 494H1600M0 594H1600M0 694H1600M0 794H1600"/>
    <path d="M112 0V900M312 0V900M512 0V900M712 0V900M912 0V900M1112 0V900M1312 0V900M1512 0V900"/>
  </g>
  <circle cx="1440" cy="144" r="210" fill="#4b77d1" opacity=".18" filter="url(#glow)"/>
  <circle cx="1390" cy="720" r="250" fill="#855bd3" opacity=".14" filter="url(#glow)"/>
  <g font-family="PingFang SC, Inter, Arial, sans-serif">
    <text x="116" y="116" font-size="24" font-weight="600" letter-spacing="7" fill="#93a6c6">WORK COMMUNICATION</text>
    <text x="116" y="242" font-size="88" font-weight="800" fill="url(#title)">汇报不是一种文体</text>
    <text x="122" y="314" font-size="34" font-weight="500" fill="#c9d5e9">先判断读者要解决什么，再选汇报结构</text>
    <rect x="116" y="360" width="1310" height="2" fill="#6e94d8" opacity=".65"/>
    <text x="116" y="430" font-size="21" font-weight="600" letter-spacing="2" fill="#8ea3c4">6 种高频场景 · 一张选择地图</text>
    <g transform="translate(116 480)">
      <g>
        <rect width="370" height="132" rx="18" fill="#152442" stroke="#4777c5"/>
        <rect x="0" width="7" height="132" rx="4" fill="#5b9cff"/>
        <text x="30" y="48" font-size="29" font-weight="700" fill="#f5f8ff">状态汇报</text>
        <text x="30" y="91" font-size="19" fill="#b5c4df">进度 · 风险 · 下步行动</text>
      </g>
      <g transform="translate(410 0)">
        <rect width="370" height="132" rx="18" fill="#152442" stroke="#4777c5"/>
        <rect x="0" width="7" height="132" rx="4" fill="#7cd5c8"/>
        <text x="30" y="48" font-size="29" font-weight="700" fill="#f5f8ff">问题汇报</text>
        <text x="30" y="91" font-size="19" fill="#b5c4df">事实 · 根因 · 影响 · 方案</text>
      </g>
      <g transform="translate(820 0)">
        <rect width="370" height="132" rx="18" fill="#152442" stroke="#4777c5"/>
        <rect x="0" width="7" height="132" rx="4" fill="#d8a85d"/>
        <text x="30" y="48" font-size="29" font-weight="700" fill="#f5f8ff">决策汇报</text>
        <text x="30" y="91" font-size="19" fill="#b5c4df">结论 · 选项 · 取舍 · Owner</text>
      </g>
      <g transform="translate(0 166)">
        <rect width="370" height="132" rx="18" fill="#152442" stroke="#4777c5"/>
        <rect x="0" width="7" height="132" rx="4" fill="#c982dc"/>
        <text x="30" y="48" font-size="29" font-weight="700" fill="#f5f8ff">方案汇报</text>
        <text x="30" y="91" font-size="19" fill="#b5c4df">目标 · 路径 · 证据 · 投入</text>
      </g>
      <g transform="translate(410 166)">
        <rect width="370" height="132" rx="18" fill="#152442" stroke="#4777c5"/>
        <rect x="0" width="7" height="132" rx="4" fill="#f17e70"/>
        <text x="30" y="48" font-size="29" font-weight="700" fill="#f5f8ff">经营复盘</text>
        <text x="30" y="91" font-size="19" fill="#b5c4df">结果 · 趋势 · 归因 · 调整</text>
      </g>
      <g transform="translate(820 166)">
        <rect width="370" height="132" rx="18" fill="#152442" stroke="#4777c5"/>
        <rect x="0" width="7" height="132" rx="4" fill="#84b96b"/>
        <text x="30" y="48" font-size="29" font-weight="700" fill="#f5f8ff">复盘汇报</text>
        <text x="30" y="91" font-size="19" fill="#b5c4df">预期 · 偏差 · 原因 · 机制</text>
      </g>
    </g>
    <text x="116" y="855" font-size="20" fill="#96a8c5">判断标准：读者需要同步状态、解决问题、作出决定，还是校准经营动作？</text>
  </g>
</svg>
